<?xml version="1.0" encoding="utf-8"?>
<!-- Generator: Adobe Illustrator 25.2.3, SVG Export Plug-In . SVG Version: 6.00 Build 0)  -->
<svg version="1.1" id="Layer_1" xmlns="http://www.w3.org/2000/svg" xmlns:xlink="http://www.w3.org/1999/xlink" x="0px" y="0px"
	 viewBox="0 0 682.2 479.9" style="enable-background:new 0 0 682.2 479.9;" xml:space="preserve">
<style type="text/css">
	.st0{fill:#FFFFFF;}
	.st1{opacity:0.25;fill:#003959;enable-background:new    ;}
	.st2{fill-rule:evenodd;clip-rule:evenodd;fill:#003959;}
</style>
<g id="Layer_2_1_">
	<g id="Layer_1-2">
		<path class="st0" d="M7.1,239.9C57,104.1,187.8,7.1,341.1,7.1C462.9,7,570.5,68.3,634.6,161.6l-0.2-0.2
			c16.8,24.4,30.4,50.8,40.7,78.5c-10.2,27.8-23.9,54.2-40.7,78.5l0.2-0.2c-64.1,93.3-171.7,154.6-293.5,154.6
			C187.8,472.8,57,375.8,7.1,239.9z"/>
		<path class="st1" d="M337.2,2.2c-130.7,0-236.6,105.9-236.6,236.6s105.9,236.6,236.6,236.6s236.6-105.9,236.6-236.6
			S467.9,2.2,337.2,2.2z M452.9,128v223.7H229.3V128H452.9z"/>
		<path class="st2" d="M640.3,322.4c-65.4,95.1-175,157.5-299.2,157.5c-156.3,0-289.7-98.9-340.6-237.5c-0.6-1.6-0.6-3.3,0-4.9
			c23.4-63.3,63.9-118.9,117-160.4c3-2.5,7.5-2,9.9,1c2.5,3,2,7.5-1,9.9c-0.1,0.1-0.1,0.1-0.2,0.2c-50.4,39.4-89,91.9-111.6,151.7
			c49.6,131.9,177.1,225.8,326.5,225.8c119.4,0,224.8-60,287.7-151.5c2.2-3.2,6.6-4.1,9.8-1.9s4.1,6.6,1.9,9.8L640.3,322.4
			L640.3,322.4z"/>
		<path class="st2" d="M628.9,165.9l-0.2-0.2C565.9,74.2,460.5,14.1,341.1,14.1c-30.3,0-60.5,3.9-89.7,11.7c-3.8,1-7.6-1.2-8.6-5
			s1.2-7.6,5-8.6C278.2,4.1,309.6,0,341.1,0c124,0,233.5,62.2,299,157.1l0.2,0.3c17.1,24.9,31,51.8,41.5,80.1c1.4,3.6-0.4,7.7-4,9.2
			s-7.7-0.4-9.2-4c0-0.1-0.1-0.2-0.1-0.3C658.6,215.3,645.3,189.6,628.9,165.9L628.9,165.9z"/>
		<path class="st2" d="M237.1,135.8v48.4c0.2,4.3-3.2,7.9-7.5,8.1c-4.3,0.2-7.9-3.2-8.1-7.5c0-0.2,0-0.4,0-0.6V128
			c0-4.3,3.5-7.8,7.8-7.8h56.2c4.3,0,7.8,3.5,7.8,7.8c0,4.3-3.5,7.8-7.8,7.8L237.1,135.8z"/>
		<path class="st2" d="M445.1,135.8h-48.4c-4.3,0-7.8-3.5-7.8-7.8c0-4.3,3.5-7.8,7.8-7.8c0,0,0,0,0,0h56.2c4.3,0,7.8,3.5,7.8,7.8
			v56.2c0,4.3-3.5,7.8-7.8,7.8c-4.3,0-7.8-3.5-7.8-7.8l0,0L445.1,135.8z"/>
		<path class="st2" d="M237.1,343.9h48.4c4.3,0,7.8,3.5,7.8,7.8c0,4.3-3.5,7.8-7.8,7.8h-56.2c-4.3,0-7.8-3.5-7.8-7.8v-56.2
			c0.2-4.3,3.8-7.7,8.1-7.5c4.1,0.1,7.4,3.4,7.5,7.5V343.9z"/>
		<path class="st2" d="M445.1,343.9v-48.4c0-4.3,3.5-7.8,7.8-7.8c4.3,0,7.8,3.5,7.8,7.8v56.2c0,4.3-3.5,7.8-7.8,7.8h-56.2
			c-4.3,0-7.8-3.5-7.8-7.8c0-4.3,3.5-7.8,7.8-7.8H445.1z"/>
		<path class="st2" d="M348.9,153.3V95.8c0-4.3-3.5-7.8-7.8-7.8c-4.3,0-7.8,3.5-7.8,7.8l0,0v57.5c0,4.3,3.5,7.8,7.8,7.8
			C345.4,161.1,348.9,157.6,348.9,153.3z"/>
		<path class="st2" d="M348.9,384v-57.5c0-4.3-3.5-7.8-7.8-7.8c-4.3,0-7.8,3.5-7.8,7.8V384c0,4.3,3.5,7.8,7.8,7.8
			C345.4,391.8,348.9,388.3,348.9,384z"/>
		<path class="st2" d="M427.7,247.7h57.5c4.3,0,7.8-3.5,7.8-7.8s-3.5-7.8-7.8-7.8h-57.5c-4.3,0-7.8,3.5-7.8,7.8
			S423.4,247.7,427.7,247.7z"/>
		<path class="st2" d="M197,247.7h57.5c4.3,0,7.8-3.5,7.8-7.8s-3.5-7.8-7.8-7.8l0,0H197c-4.3,0-7.8,3.5-7.8,7.8
			S192.7,247.7,197,247.7z"/>
	</g>
</g>
</svg>
