<?xml version="1.0" encoding="UTF-8" standalone="no"?>
<!-- Created with Inkscape (http://www.inkscape.org/) -->

<svg
   width="1080mm"
   height="1080mm"
   viewBox="0 0 1080 1080"
   version="1.1"
   id="svg1"
   sodipodi:docname="YESS_ full form_color.svg"
   inkscape:version="1.4.2 (f4327f4, 2025-05-13)"
   inkscape:export-filename="YESS_ full form.svg"
   inkscape:export-xdpi="96"
   inkscape:export-ydpi="96"
   xmlns:inkscape="http://www.inkscape.org/namespaces/inkscape"
   xmlns:sodipodi="http://sodipodi.sourceforge.net/DTD/sodipodi-0.dtd"
   xmlns="http://www.w3.org/2000/svg"
   xmlns:svg="http://www.w3.org/2000/svg">
  <sodipodi:namedview
     id="namedview1"
     pagecolor="#ffffff"
     bordercolor="#000000"
     borderopacity="0.25"
     inkscape:showpageshadow="2"
     inkscape:pageopacity="0.0"
     inkscape:pagecheckerboard="0"
     inkscape:deskcolor="#d1d1d1"
     inkscape:document-units="mm"
     inkscape:zoom="0.094686534"
     inkscape:cx="1008.5912"
     inkscape:cy="807.92904"
     inkscape:window-width="1920"
     inkscape:window-height="991"
     inkscape:window-x="-9"
     inkscape:window-y="-9"
     inkscape:window-maximized="1"
     inkscape:current-layer="layer1" />
  <defs
     id="defs1" />
  <g
     id="layer1"
     style="display:inline">
    <g
       id="g2">
      <g
         id="g1">
        <path
           id="rect16"
           style="display:inline;fill:#0f52ba;fill-opacity:1;stroke:#000000;stroke-width:0;stroke-linecap:square;stroke-dasharray:none;stroke-opacity:1;paint-order:fill markers stroke"
           d="m 429.25447,548.37036 c -3.03379,0 -5.76724,1.42432 -7.72435,3.72637 -2.51712,2.4854 -4.1851,6.89889 -4.1851,11.951 v 61.4651 c 0,1.08011 0.0771,2.12994 0.22139,3.13912 0.28496,6.57888 4.98383,11.77843 10.77831,11.77843 h 62.09013 c 5.9792,0 10.79309,-5.53567 10.79309,-12.41107 0,-6.87546 -4.81389,-12.41112 -10.79309,-12.41112 h -53.15988 a 2.0823961,3.416063 0 0 1 -2.0824,-3.41609 v -1.96458 a 2.0823961,3.416063 0 0 1 2.0824,-3.41608 h 26.45678 c 5.9792,0 10.79306,-5.53567 10.79306,-12.41107 0,-6.8754 -4.81386,-12.41107 -10.79306,-12.41107 h -26.23728 a 2.3018938,3.7761377 0 0 1 -2.3019,-3.77616 v -1.24747 a 2.3018938,3.7761377 0 0 1 2.3019,-3.77617 h 53.06032 c 5.9792,0 10.7931,-5.53262 10.7931,-12.40802 0,-6.87545 -4.8139,-12.41112 -10.7931,-12.41112 z" />
        <path
           id="path9"
           style="fill:#fff655;fill-opacity:1;stroke:none;stroke-width:2.89588;stroke-linecap:square;stroke-dasharray:none;stroke-opacity:1;paint-order:fill markers stroke"
           d="m 456.79898,321.91371 c -49.3078,0 -89.28046,39.97115 -89.28046,89.27897 0,24.71087 10.03952,47.07765 26.26198,63.24317 8.77888,8.74806 19.35701,23.67216 21.33742,35.93937 l 1.38282,8.56542 c 1.73604,10.75351 11.01899,18.65802 21.91171,18.65802 h 36.77305 c 10.89273,0 20.17567,-7.90451 21.91171,-18.65802 l 1.38282,-8.56542 c 1.98042,-12.26721 12.55857,-27.19131 21.33731,-35.93948 16.22199,-16.16553 26.26059,-38.53225 26.26059,-63.24306 0,-49.30782 -39.97115,-89.27897 -89.27895,-89.27897 z" />
        <path
           id="path6"
           style="baseline-shift:baseline;display:inline;overflow:visible;fill:#0f52ba;fill-opacity:1;stroke:none;stroke-width:2.89588;stroke-linecap:square;stroke-dasharray:none;stroke-opacity:1;paint-order:fill markers stroke;enable-background:accumulate;stop-color:#000000"
           d="m 486.77195,365.55844 c 0,0 -6.14903,-1.9394 -8.0614,-0.0517 -0.95347,0.94127 -0.0272,4.01937 -0.0272,4.01937 -0.0939,14.68829 -9.00235,28.19145 -24.13672,38.24359 -16.71696,11.10331 -27.61454,26.9789 -27.72924,44.88073 -0.0986,15.40432 7.80562,29.41042 20.5728,40.228 2.19625,-1.68768 4.46971,-3.28094 6.73759,-4.86815 -5.58862,-4.45046 -10.09017,-9.42323 -13.33084,-14.76206 l 28.11488,0.17891 c 0.94422,-1.40248 1.80897,-2.8557 2.58183,-4.35788 l -33.03663,-0.21027 c -2.37469,-5.14665 -3.61475,-10.57458 -3.57897,-16.15733 0.0939,-14.68837 9.00242,-28.19488 24.13673,-38.24702 16.71702,-11.10334 27.61535,-26.97553 27.73005,-44.8773 z m -0.55986,87.47034 c 0.0986,-15.41544 -7.81767,-29.42986 -20.60096,-40.25069 -0.69143,0.53483 -1.39115,1.0564 -2.09877,1.56523 -1.55469,1.06962 -3.10448,2.16889 -4.62971,3.30801 5.82896,4.63882 10.47663,9.84577 13.74581,15.44353 l -28.9276,-0.18388 c -0.60612,0.92459 -1.17755,1.87573 -1.71034,2.85542 -0.2687,0.49504 -0.52517,0.99622 -0.77061,1.50307 l 33.65174,0.21409 c 2.17917,4.9491 3.31325,10.1508 3.27903,15.49409 -0.0939,14.68834 -9.00249,28.19143 -24.13679,38.24371 -16.71696,11.1033 -23.31911,22.95929 -23.43381,40.86107 l -0.19796,4.12339 1.6668,0.47891 1.6668,0.47891 3.31999,0.40816 0.20952,-5.82141 c 0.0939,-14.68832 6.10202,-23.78754 21.23633,-33.83966 16.71702,-11.1033 27.61536,-26.97971 27.73005,-44.88145 z m -2.40864,78.71699 c 0.0986,-15.4037 -5.93073,-24.67428 -18.69688,-35.49157 -2.19448,1.69095 -4.4693,3.2821 -6.74508,4.8623 6.47624,5.15622 11.49269,11.01368 14.77975,17.32938 l -31.15881,-0.19796 c -0.81327,1.4055 -1.54687,2.85917 -2.19088,4.36039 l 35.32452,0.22517 c 1.66918,4.37489 1.43863,6.68406 1.56305,9.15766 0.12449,2.4736 -0.75789,5.67794 -0.75789,5.67794 l 1.96639,-0.27006 2.00197,-0.23266 1.86877,-0.64897 1.86884,-0.64898 z m -8.26303,-80.64181 -37.93002,-0.24163 c -0.0939,1.4557 -0.0986,2.91714 -0.007,4.3742 l 37.87253,0.24109 c 0.11429,-1.45003 0.13606,-2.91183 0.068,-4.37391 z m -2.32659,-68.03245 -35.29949,-0.22477 c -1.66904,-4.37462 -2.53006,-8.93106 -2.50019,-13.59571 0,0 0.96741,-3.06591 0.0272,-4.01937 -1.88768,-1.91211 -6.14849,-1.93885 -8.06059,-0.051 -0.95346,0.94129 -0.0272,4.01937 -0.0272,4.01937 -0.0986,15.42255 7.82379,29.44101 20.61749,40.26316 0.517,-0.40306 1.03938,-0.79914 1.5655,-1.18804 1.73898,-1.205 3.46407,-2.42946 5.15223,-3.69601 -6.4861,-5.16039 -11.50996,-11.02369 -14.80043,-17.34616 l 31.0963,0.1981 c 0.82428,-1.38835 1.56782,-2.83106 2.22918,-4.35924 z" />
        <g
           id="g12"
           transform="matrix(6.8027001,0,0,6.8027001,-169.5837,-175.87994)">
          <rect
             style="fill:#0f52ba;fill-opacity:1;stroke:#000000;stroke-width:0;stroke-linecap:square;stroke-dasharray:none;stroke-opacity:1;paint-order:fill markers stroke"
             id="rect28"
             width="1.5122095"
             height="8.1205692"
             x="91.322327"
             y="62.35537"
             rx="1.2905256"
             ry="1.1088803" />
          <rect
             style="fill:#0f52ba;fill-opacity:1;stroke:#000000;stroke-width:0;stroke-linecap:square;stroke-dasharray:none;stroke-opacity:1;paint-order:fill markers stroke"
             id="rect30"
             width="1.5122095"
             height="8.1205692"
             x="127.05032"
             y="-27.422697"
             rx="1.2905256"
             ry="1.1088803"
             transform="rotate(45)" />
          <rect
             style="fill:#0f52ba;fill-opacity:1;stroke:#000000;stroke-width:0;stroke-linecap:square;stroke-dasharray:none;stroke-opacity:1;paint-order:fill markers stroke"
             id="rect32"
             width="1.5122095"
             height="8.1205692"
             x="1.257301"
             y="102.20324"
             rx="1.2905256"
             ry="1.1088803"
             transform="rotate(-45)" />
        </g>
        <path
           d="M 298.68977,397.83531 214.71456,560.2565 v 80.17386 H 155.6209 V 560.2565 L 71.645685,397.83531 h 67.041935 l 46.99847,101.59963 46.6529,-101.59963 z"
           id="text7"
           style="font-weight:bold;font-size:345.577px;font-family:Poppins;-inkscape-font-specification:'Poppins Bold';fill:#0f52ba;stroke:#000000;stroke-width:0;stroke-linecap:square;paint-order:fill markers stroke"
           aria-label="Y" />
        <path
           d="m 704.82556,640.43045 q -26.60943,0 -47.68962,-8.63942 -21.0802,-8.63943 -33.86655,-25.5727 -12.44077,-16.93327 -13.13193,-40.77809 h 62.89502 q 1.38231,13.47751 9.33058,20.73462 7.94827,6.91154 20.73462,6.91154 13.13192,0 20.73462,-5.8748 7.60269,-6.22039 7.60269,-16.93328 0,-8.985 -6.22039,-14.85981 -5.87481,-5.87481 -14.85981,-9.67615 -8.63942,-3.80135 -24.88154,-8.63943 -23.49924,-7.25712 -38.35905,-14.51423 -14.85981,-7.25712 -25.5727,-21.42578 -10.71288,-14.16865 -10.71288,-36.97674 0,-33.86654 24.53596,-52.87328 24.53597,-19.35231 63.93175,-19.35231 40.08693,0 64.6229,19.35231 24.53596,19.00674 26.26385,53.21886 h -63.93175 q -0.69115,-11.74962 -8.63942,-18.31558 -7.94827,-6.91154 -20.38904,-6.91154 -10.71289,0 -17.27885,5.87481 -6.56597,5.52923 -6.56597,16.24212 0,11.74962 11.05847,18.31558 11.05846,6.56596 34.5577,14.16866 23.49923,7.94827 38.01347,15.20538 14.85981,7.25712 25.57269,21.0802 10.71289,13.82308 10.71289,35.59443 0,20.73462 -10.71289,37.66789 -10.36731,16.93328 -30.41077,26.95501 -20.04347,10.02173 -47.34405,10.02173 z"
           id="text6"
           style="font-weight:bold;font-size:345.577px;font-family:Poppins;-inkscape-font-specification:'Poppins Bold';fill:#0f52ba;stroke:#000000;stroke-width:0;stroke-linecap:square;paint-order:fill markers stroke"
           aria-label="S" />
        <path
           d="m 919.88641,640.43045 q -26.60943,0 -47.68962,-8.63942 -21.0802,-8.63943 -33.86655,-25.5727 -12.44077,-16.93327 -13.13192,-40.77809 h 62.89501 q 1.38231,13.47751 9.33058,20.73462 7.94827,6.91154 20.73462,6.91154 13.13192,0 20.73462,-5.8748 7.60269,-6.22039 7.60269,-16.93328 0,-8.985 -6.22038,-14.85981 -5.87481,-5.87481 -14.85982,-9.67615 -8.63942,-3.80135 -24.88154,-8.63943 -23.49923,-7.25712 -38.35905,-14.51423 -14.85981,-7.25712 -25.57269,-21.42578 -10.71289,-14.16865 -10.71289,-36.97674 0,-33.86654 24.53597,-52.87328 24.53596,-19.35231 63.93174,-19.35231 40.08693,0 64.6229,19.35231 24.53592,19.00674 26.26382,53.21886 h -63.93171 q -0.69116,-11.74962 -8.63943,-18.31558 -7.94827,-6.91154 -20.38904,-6.91154 -10.71289,0 -17.27885,5.87481 -6.56596,5.52923 -6.56596,16.24212 0,11.74962 11.05846,18.31558 11.05846,6.56596 34.5577,14.16866 23.49924,7.94827 38.01347,15.20538 14.85981,7.25712 25.5727,21.0802 10.71286,13.82308 10.71286,35.59443 0,20.73462 -10.71286,37.66789 -10.36731,16.93328 -30.41078,26.95501 -20.04346,10.02173 -47.34405,10.02173 z"
           id="text5"
           style="font-weight:bold;font-size:345.577px;font-family:Poppins;-inkscape-font-specification:'Poppins Bold';fill:#0f52ba;stroke:#000000;stroke-width:0;stroke-linecap:square;paint-order:fill markers stroke"
           aria-label="S" />
      </g>
      <path
         style="font-weight:bold;font-size:39.0866px;font-family:Poppins;-inkscape-font-specification:'Poppins Bold';fill:#0f52ba;stroke-width:0;stroke-linecap:square;paint-order:fill markers stroke"
         d="m 137.97466,706.77476 -9.49804,18.37071 v 9.06809 h -6.68381 v -9.06809 l -9.49804,-18.37071 h 7.5828 l 5.31577,11.49146 5.2767,-11.49146 z m 15.67371,27.7124 q -3.86957,0 -7.11376,-1.79798 -3.2051,-1.79798 -5.12034,-5.00308 -1.87616,-3.24419 -1.87616,-7.27011 0,-4.02592 1.87616,-7.23102 1.91524,-3.20511 5.12034,-5.00309 3.24419,-1.79798 7.11376,-1.79798 3.86958,0 7.07468,1.79798 3.24418,1.79798 5.08125,5.00309 1.87616,3.2051 1.87616,7.23102 0,4.02592 -1.87616,7.27011 -1.87615,3.2051 -5.08125,5.00308 -3.2051,1.79798 -7.07468,1.79798 z m 0,-6.09751 q 3.28328,0 5.23761,-2.18885 1.99341,-2.18885 1.99341,-5.78481 0,-3.63506 -1.99341,-5.78482 -1.95433,-2.18885 -5.23761,-2.18885 -3.32236,0 -5.31578,2.14976 -1.95433,2.14977 -1.95433,5.82391 0,3.63505 1.95433,5.8239 1.99342,2.14976 5.31578,2.14976 z m 24.31184,-21.61489 v 16.41638 q 0,2.46245 1.21169,3.7914 1.21168,1.32894 3.55688,1.32894 2.34519,0 3.59597,-1.32894 1.25077,-1.32895 1.25077,-3.7914 v -16.41638 h 6.68381 v 16.37729 q 0,3.67414 -1.56347,6.21477 -1.56346,2.54063 -4.22135,3.83049 -2.6188,1.28985 -5.86299,1.28985 -3.24419,0 -5.8239,-1.25077 -2.54063,-1.28986 -4.02592,-3.83048 -1.4853,-2.57972 -1.4853,-6.25386 v -16.37729 z m 45.53589,27.4388 h -6.68381 l -11.17876,-16.9245 v 16.9245 h -6.68381 v -27.4388 h 6.68381 l 11.17876,17.00267 v -17.00267 h 6.68381 z m 23.06112,-18.76157 q -0.74264,-1.36803 -2.14976,-2.07159 -1.36803,-0.74265 -3.24419,-0.74265 -3.24418,0 -5.19851,2.14977 -1.95433,2.11067 -1.95433,5.66755 0,3.7914 2.0325,5.94117 2.07159,2.11067 5.66756,2.11067 2.46245,0 4.14318,-1.25077 1.71981,-1.25077 2.50154,-3.59596 h -8.48179 v -4.92492 h 14.54021 v 6.21477 q -0.74264,2.50155 -2.54063,4.65131 -1.7589,2.14976 -4.49496,3.47871 -2.73606,1.32894 -6.17568,1.32894 -4.06501,0 -7.27011,-1.7589 -3.16601,-1.79798 -4.964,-4.96399 -1.75889,-3.16602 -1.75889,-7.23103 0,-4.065 1.75889,-7.23102 1.79799,-3.2051 4.964,-4.964 3.16602,-1.79798 7.23102,-1.79798 4.92491,0 8.28636,2.38428 3.40054,2.38429 4.49496,6.60564 z m 26.53978,-3.32236 v 5.5503 h 8.95083 v 5.15943 H 273.097 v 6.01933 h 10.12343 v 5.35487 h -16.80724 v -27.4388 h 16.80724 v 5.35487 z m 39.00843,22.08393 h -6.68381 l -11.17876,-16.9245 v 16.9245 h -6.68381 v -27.4388 h 6.68381 l 11.17876,17.00267 v -17.00267 h 6.68381 z m 24.58551,-27.4388 v 5.35487 h -7.27011 v 22.08393 h -6.68381 v -22.08393 h -7.27011 v -5.35487 z m 17.35443,27.4388 -5.70665,-10.35795 h -1.60255 v 10.35795 h -6.68381 v -27.4388 h 11.21786 q 3.24419,0 5.51121,1.13351 2.30611,1.13352 3.43962,3.12693 1.13351,1.95433 1.13351,4.3777 0,2.73606 -1.56346,4.88583 -1.52438,2.14976 -4.53405,3.04875 l 6.33203,10.86608 z m -7.3092,-15.08743 h 4.14318 q 1.83707,0 2.73606,-0.89899 0.93808,-0.89899 0.93808,-2.54063 0,-1.56347 -0.93808,-2.46246 -0.89899,-0.89899 -2.73606,-0.89899 h -4.14318 z m 25.48448,-6.9965 v 5.5503 h 8.95084 v 5.15943 h -8.95084 v 6.01933 h 10.12343 v 5.35487 h -16.80723 v -27.4388 h 16.80723 v 5.35487 z m 35.3734,3.47871 q 0,2.38428 -1.09442,4.37769 -1.09443,1.95433 -3.36145,3.16602 -2.26702,1.21168 -5.62847,1.21168 h -4.14318 v 9.84983 h -6.68381 v -27.4388 h 10.82699 q 3.28327,0 5.5503,1.13351 2.26702,1.13352 3.40053,3.12693 1.13351,1.99342 1.13351,4.57314 z m -10.59247,3.43962 q 1.91525,0 2.85332,-0.899 0.93808,-0.89899 0.93808,-2.54062 0,-1.64164 -0.93808,-2.54063 -0.93807,-0.899 -2.85332,-0.899 h -3.63505 v 6.87925 z m 28.06419,15.1656 -5.70665,-10.35795 h -1.60255 v 10.35795 h -6.68381 v -27.4388 h 11.21786 q 3.24419,0 5.51121,1.13351 2.30611,1.13352 3.43962,3.12693 1.13351,1.95433 1.13351,4.3777 0,2.73606 -1.56346,4.88583 -1.52438,2.14976 -4.53405,3.04875 l 6.33203,10.86608 z m -7.3092,-15.08743 h 4.14318 q 1.83707,0 2.73607,-0.89899 0.93807,-0.89899 0.93807,-2.54063 0,-1.56347 -0.93807,-2.46246 -0.899,-0.89899 -2.73607,-0.89899 h -4.14318 z m 25.4845,-6.9965 v 5.5503 h 8.95083 v 5.15943 h -8.95083 v 6.01933 h 10.12343 v 5.35487 h -16.80724 v -27.4388 h 16.80724 v 5.35487 z m 39.00845,22.08393 h -6.68381 l -11.17877,-16.9245 v 16.9245 h -6.6838 v -27.4388 h 6.6838 l 11.17877,17.00267 v -17.00267 h 6.68381 z m 11.53058,-22.08393 v 5.5503 h 8.95083 v 5.15943 h -8.95083 v 6.01933 h 10.12343 v 5.35487 h -16.80724 v -27.4388 h 16.80724 v 5.35487 z m 21.02859,-5.35487 v 16.41638 q 0,2.46245 1.21168,3.7914 1.21169,1.32894 3.55688,1.32894 2.3452,0 3.59597,-1.32894 1.25077,-1.32895 1.25077,-3.7914 v -16.41638 h 6.68381 v 16.37729 q 0,3.67414 -1.56347,6.21477 -1.56346,2.54063 -4.22135,3.83049 -2.6188,1.28985 -5.86299,1.28985 -3.24419,0 -5.8239,-1.25077 -2.54063,-1.28986 -4.02592,-3.83048 -1.48529,-2.57972 -1.48529,-6.25386 v -16.37729 z m 34.98251,27.4388 -5.70664,-10.35795 h -1.60255 v 10.35795 h -6.68381 v -27.4388 h 11.21785 q 3.24419,0 5.51121,1.13351 2.30611,1.13352 3.43962,3.12693 1.13352,1.95433 1.13352,4.3777 0,2.73606 -1.56347,4.88583 -1.52438,2.14976 -4.53404,3.04875 l 6.33203,10.86608 z m -7.30919,-15.08743 h 4.14318 q 1.83707,0 2.73606,-0.89899 0.93808,-0.89899 0.93808,-2.54063 0,-1.56347 -0.93808,-2.46246 -0.89899,-0.89899 -2.73606,-0.89899 h -4.14318 z m 28.72865,15.36103 q -3.00967,0 -5.39395,-0.97716 -2.38428,-0.97717 -3.83049,-2.89241 -1.40711,-1.91524 -1.48529,-4.61222 h 7.11376 q 0.15635,1.52438 1.05534,2.3452 0.89899,0.78173 2.3452,0.78173 1.48529,0 2.34519,-0.66447 0.85991,-0.70356 0.85991,-1.91525 0,-1.01625 -0.70356,-1.68072 -0.66447,-0.66447 -1.68072,-1.09443 -0.97717,-0.42995 -2.81424,-0.97716 -2.65789,-0.82082 -4.33861,-1.64164 -1.68073,-0.82082 -2.89241,-2.42337 -1.21168,-1.60255 -1.21168,-4.18226 0,-3.83049 2.77514,-5.98025 2.77515,-2.18885 7.23103,-2.18885 4.53404,0 7.30919,2.18885 2.77515,2.14976 2.97058,6.01933 h -7.23102 q -0.0782,-1.32894 -0.97716,-2.07159 -0.899,-0.78173 -2.30611,-0.78173 -1.21169,0 -1.95433,0.66447 -0.74265,0.62539 -0.74265,1.83707 0,1.32895 1.25077,2.07159 1.25077,0.74265 3.90866,1.60255 2.65789,0.899 4.29953,1.71982 1.68072,0.82081 2.89241,2.38428 1.21168,1.56346 1.21168,4.02592 0,2.34519 -1.21168,4.26044 -1.1726,1.91524 -3.43962,3.04875 -2.26703,1.13351 -5.35487,1.13351 z m 32.32462,0 q -3.00967,0 -5.39395,-0.97716 -2.38429,-0.97717 -3.83049,-2.89241 -1.40712,-1.91524 -1.48529,-4.61222 h 7.11376 q 0.15635,1.52438 1.05534,2.3452 0.89899,0.78173 2.34519,0.78173 1.48529,0 2.3452,-0.66447 0.8599,-0.70356 0.8599,-1.91525 0,-1.01625 -0.70355,-1.68072 -0.66448,-0.66447 -1.68073,-1.09443 -0.97716,-0.42995 -2.81423,-0.97716 -2.65789,-0.82082 -4.33862,-1.64164 -1.68072,-0.82082 -2.8924,-2.42337 -1.21169,-1.60255 -1.21169,-4.18226 0,-3.83049 2.77515,-5.98025 2.77515,-2.18885 7.23102,-2.18885 4.53405,0 7.3092,2.18885 2.77514,2.14976 2.97058,6.01933 h -7.23102 q -0.0782,-1.32894 -0.97717,-2.07159 -0.89899,-0.78173 -2.30611,-0.78173 -1.21168,0 -1.95433,0.66447 -0.74264,0.62539 -0.74264,1.83707 0,1.32895 1.25077,2.07159 1.25077,0.74265 3.90866,1.60255 2.65789,0.899 4.29952,1.71982 1.68073,0.82081 2.89241,2.38428 1.21169,1.56346 1.21169,4.02592 0,2.34519 -1.21169,4.26044 -1.1726,1.91524 -3.43962,3.04875 -2.26702,1.13351 -5.35486,1.13351 z m 12.97673,-14.03209 q 0,-4.065 1.75889,-7.23102 1.7589,-3.2051 4.88583,-4.964 3.16601,-1.79798 7.15285,-1.79798 4.88582,0 8.36453,2.57972 3.47871,2.57971 4.65131,7.03558 h -7.34829 q -0.82081,-1.71981 -2.34519,-2.6188 -1.48529,-0.89899 -3.40054,-0.89899 -3.08784,0 -5.00308,2.14976 -1.91524,2.14977 -1.91524,5.74573 0,3.59597 1.91524,5.74573 1.91524,2.14977 5.00308,2.14977 1.91525,0 3.40054,-0.89899 1.52438,-0.899 2.34519,-2.61881 h 7.34829 q -1.1726,4.45588 -4.65131,7.03559 -3.47871,2.54063 -8.36453,2.54063 -3.98684,0 -7.15285,-1.7589 -3.12693,-1.79798 -4.88583,-4.96399 -1.75889,-3.16602 -1.75889,-7.23103 z m 54.68216,-13.68031 v 27.4388 h -6.68381 v -11.29603 h -10.39704 v 11.29603 h -6.68381 v -27.4388 h 6.68381 v 10.74882 h 10.39704 v -10.74882 z m 17.78442,27.7124 q -3.86957,0 -7.11376,-1.79798 -3.2051,-1.79798 -5.12034,-5.00308 -1.87616,-3.24419 -1.87616,-7.27011 0,-4.02592 1.87616,-7.23102 1.91524,-3.20511 5.12034,-5.00309 3.24419,-1.79798 7.11376,-1.79798 3.86958,0 7.07468,1.79798 3.24419,1.79798 5.08126,5.00309 1.87615,3.2051 1.87615,7.23102 0,4.02592 -1.87615,7.27011 -1.87616,3.2051 -5.08126,5.00308 -3.2051,1.79798 -7.07468,1.79798 z m 0,-6.09751 q 3.28328,0 5.23761,-2.18885 1.99341,-2.18885 1.99341,-5.78481 0,-3.63506 -1.99341,-5.78482 -1.95433,-2.18885 -5.23761,-2.18885 -3.32236,0 -5.31577,2.14976 -1.95433,2.14977 -1.95433,5.82391 0,3.63505 1.95433,5.8239 1.99341,2.14976 5.31577,2.14976 z m 30.72205,6.09751 q -3.86957,0 -7.11376,-1.79798 -3.2051,-1.79798 -5.12035,-5.00308 -1.87615,-3.24419 -1.87615,-7.27011 0,-4.02592 1.87615,-7.23102 1.91525,-3.20511 5.12035,-5.00309 3.24419,-1.79798 7.11376,-1.79798 3.86957,0 7.07467,1.79798 3.24419,1.79798 5.08126,5.00309 1.87616,3.2051 1.87616,7.23102 0,4.02592 -1.87616,7.27011 -1.87615,3.2051 -5.08126,5.00308 -3.2051,1.79798 -7.07467,1.79798 z m 0,-6.09751 q 3.28327,0 5.2376,-2.18885 1.99342,-2.18885 1.99342,-5.78481 0,-3.63506 -1.99342,-5.78482 -1.95433,-2.18885 -5.2376,-2.18885 -3.32236,0 -5.31578,2.14976 -1.95433,2.14977 -1.95433,5.82391 0,3.63505 1.95433,5.8239 1.99342,2.14976 5.31578,2.14976 z m 24.4291,0.66448 h 8.7554 v 5.15943 h -15.43921 v -27.4388 h 6.68381 z m 41.2363,5.15943 -2.54063,-2.46246 q -3.7914,2.89241 -9.06809,2.89241 -3.16601,0 -5.51121,-1.01625 -2.3452,-1.05534 -3.63505,-2.9315 -1.25078,-1.91524 -1.25078,-4.45587 0,-2.57971 1.36804,-4.6513 1.40711,-2.11068 4.18226,-3.43963 -1.01625,-1.25077 -1.4462,-2.38428 -0.42995,-1.1726 -0.42995,-2.54063 0,-1.95433 1.01625,-3.55688 1.01625,-1.60255 2.93149,-2.50154 1.95433,-0.93808 4.61222,-0.93808 2.69698,0 4.57313,0.97717 1.87616,0.97716 2.81424,2.6188 0.93808,1.64164 0.8599,3.59597 h -6.29294 q 0.0391,-1.05534 -0.54721,-1.60256 -0.54721,-0.58629 -1.48529,-0.58629 -0.93808,0 -1.56347,0.54721 -0.62538,0.54721 -0.62538,1.40712 0,0.82081 0.50812,1.71981 0.54722,0.89899 1.68073,2.07159 l 6.68381,6.52746 q 0.0782,-0.19543 0.19543,-0.46904 0.15635,-0.27361 0.31269,-0.62539 l 1.44621,-2.46245 h 6.68381 l -1.87616,3.40053 q -1.05534,2.30611 -2.42337,4.3777 l 6.60563,6.48838 z m -11.29603,-4.964 q 2.61881,0 4.65131,-1.48529 l -6.09751,-5.90208 q -2.81424,1.44621 -2.81424,3.90866 0,1.48529 1.13352,2.50154 1.17259,0.97717 3.12692,0.97717 z m 39.712,5.2376 q -3.00967,0 -5.39395,-0.97716 -2.38428,-0.97717 -3.83049,-2.89241 -1.40711,-1.91524 -1.48529,-4.61222 h 7.11376 q 0.15635,1.52438 1.05534,2.3452 0.89899,0.78173 2.3452,0.78173 1.48529,0 2.34519,-0.66447 0.85991,-0.70356 0.85991,-1.91525 0,-1.01625 -0.70356,-1.68072 -0.66447,-0.66447 -1.68072,-1.09443 -0.97717,-0.42995 -2.81424,-0.97716 -2.65789,-0.82082 -4.33861,-1.64164 -1.68073,-0.82082 -2.89241,-2.42337 -1.21168,-1.60255 -1.21168,-4.18226 0,-3.83049 2.77514,-5.98025 2.77515,-2.18885 7.23103,-2.18885 4.53404,0 7.30919,2.18885 2.77515,2.14976 2.97058,6.01933 h -7.23102 q -0.0782,-1.32894 -0.97716,-2.07159 -0.899,-0.78173 -2.30611,-0.78173 -1.21169,0 -1.95433,0.66447 -0.74265,0.62539 -0.74265,1.83707 0,1.32895 1.25077,2.07159 1.25077,0.74265 3.90866,1.60255 2.65789,0.899 4.29953,1.71982 1.68072,0.82081 2.89241,2.38428 1.21168,1.56346 1.21168,4.02592 0,2.34519 -1.21168,4.26044 -1.1726,1.91524 -3.43962,3.04875 -2.26703,1.13351 -5.35487,1.13351 z m 27.08703,0 q -3.86958,0 -7.11377,-1.79798 -3.2051,-1.79798 -5.12034,-5.00308 -1.87616,-3.24419 -1.87616,-7.27011 0,-4.02592 1.87616,-7.23102 1.91524,-3.20511 5.12034,-5.00309 3.24419,-1.79798 7.11377,-1.79798 3.86957,0 7.07467,1.79798 3.24419,1.79798 5.08126,5.00309 1.87615,3.2051 1.87615,7.23102 0,4.02592 -1.87615,7.27011 -1.87616,3.2051 -5.08126,5.00308 -3.2051,1.79798 -7.07467,1.79798 z m 0,-6.09751 q 3.28327,0 5.2376,-2.18885 1.99342,-2.18885 1.99342,-5.78481 0,-3.63506 -1.99342,-5.78482 -1.95433,-2.18885 -5.2376,-2.18885 -3.32237,0 -5.31578,2.14976 -1.95433,2.14977 -1.95433,5.82391 0,3.63505 1.95433,5.8239 1.99341,2.14976 5.31578,2.14976 z m 16.61178,-7.93458 q 0,-4.065 1.75889,-7.23102 1.7589,-3.2051 4.88583,-4.964 3.16601,-1.79798 7.15285,-1.79798 4.88582,0 8.36453,2.57972 3.47871,2.57971 4.65131,7.03558 h -7.34828 q -0.82082,-1.71981 -2.3452,-2.6188 -1.48529,-0.89899 -3.40054,-0.89899 -3.08784,0 -5.00308,2.14976 -1.91524,2.14977 -1.91524,5.74573 0,3.59597 1.91524,5.74573 1.91524,2.14977 5.00308,2.14977 1.91525,0 3.40054,-0.89899 1.52438,-0.899 2.3452,-2.61881 h 7.34828 q -1.1726,4.45588 -4.65131,7.03559 -3.47871,2.54063 -8.36453,2.54063 -3.98684,0 -7.15285,-1.7589 -3.12693,-1.79798 -4.88583,-4.96399 -1.75889,-3.16602 -1.75889,-7.23103 z m 37.60125,-13.68031 v 27.4388 h -6.68381 v -27.4388 z m 11.53058,5.35487 v 5.5503 h 8.95083 v 5.15943 h -8.95083 v 6.01933 h 10.12343 v 5.35487 h -16.80724 v -27.4388 h 16.80724 v 5.35487 z m 34.2008,-5.35487 v 5.35487 h -7.27011 v 22.08393 h -6.68381 v -22.08393 h -7.2701 v -5.35487 z m 26.89156,0 -9.49804,18.37071 v 9.06809 h -6.68381 v -9.06809 l -9.49805,-18.37071 h 7.5828 l 5.31578,11.49146 5.27669,-11.49146 z"
         id="text1"
         aria-label="YOUNG ENTREPRENEURS SCHOOL &amp; SOCIETY" />
    </g>
  </g>
</svg>
