<?xml version="1.0" encoding="UTF-8" standalone="no"?>
<!-- Created with Inkscape (http://www.inkscape.org/) -->

<svg
   width="1080mm"
   height="1080mm"
   viewBox="0 0 1080 1080"
   version="1.1"
   id="svg1"
   xmlns="http://www.w3.org/2000/svg"
   xmlns:svg="http://www.w3.org/2000/svg">
  <defs
     id="defs1" />
  <g
     id="layer1"
     style="display:inline">
    <g
       id="g1">
      <path
         id="rect16"
         style="display:inline;fill:#000000;fill-opacity:1;stroke:#000000;stroke-width:0;stroke-linecap:square;stroke-dasharray:none;stroke-opacity:1;paint-order:fill markers stroke"
         d="m 114.91753,153.2971 c -0.8496,0 -1.61509,0.24315 -2.16317,0.63614 -0.70491,0.42429 -1.17202,1.17773 -1.17202,2.04019 v 10.49289 c 0,0.18439 0.0216,0.36361 0.062,0.53589 0.0798,1.1231 1.3957,2.01073 3.01842,2.01073 h 17.38808 c 1.67445,0 3.02256,-0.94501 3.02256,-2.11873 0,-1.17373 -1.34811,-2.11874 -3.02256,-2.11874 h -14.8872 a 0.58316629,0.58316629 45 0 1 -0.58317,-0.58317 v -0.33538 a 0.58316629,0.58316629 135 0 1 0.58317,-0.58317 h 7.40911 c 1.67445,0 3.02255,-0.94501 3.02255,-2.11873 0,-1.17372 -1.3481,-2.11873 -3.02255,-2.11873 h -7.34764 a 0.64463571,0.64463571 45 0 1 -0.64464,-0.64464 v -0.21296 a 0.64463571,0.64463571 135 0 1 0.64464,-0.64464 h 14.85932 c 1.67445,0 3.02256,-0.94449 3.02256,-2.11821 0,-1.17373 -1.34811,-2.11874 -3.02256,-2.11874 z"
         transform="matrix(3.5708444,0,0,5.8577855,18.901822,-253.97886)" />
      <path
         id="path9"
         style="fill:#000000;fill-opacity:1;stroke:none;stroke-width:2.89588;stroke-linecap:square;stroke-dasharray:none;stroke-opacity:1;paint-order:fill markers stroke"
         d="m 456.79898,417.54609 c -49.3078,0 -89.28033,39.97097 -89.28033,89.27878 0,24.71087 10.03951,47.07765 26.26197,63.24317 8.77888,8.74806 19.35677,23.67219 21.33718,35.9394 l 1.38288,8.56539 c 1.28709,7.97254 6.7224,14.37926 13.88649,17.15968 l 0.19287,-4.01787 c 0.11473,-17.90177 6.71676,-29.75775 23.43369,-40.86106 15.13431,-10.05228 24.04314,-23.55531 24.13705,-38.24364 0.0343,-5.3433 -1.09971,-10.54505 -3.27889,-15.49416 l -33.65168,-0.21407 c 0.24544,-0.50685 0.5018,-1.00821 0.7705,-1.50324 0.53279,-0.97969 1.10436,-1.93054 1.71049,-2.85513 l 28.92745,0.18386 c -3.26918,-5.59777 -7.917,-10.80521 -13.74594,-15.44403 1.52523,-1.13912 3.075,-2.23819 4.62969,-3.30781 0.70762,-0.50882 1.40713,-1.03046 2.09857,-1.56528 12.7833,10.82083 20.69992,24.83533 20.60134,40.25077 l -5.3e-4,5.3e-4 c -0.11473,17.90172 -11.01306,33.77818 -27.73008,44.88148 -15.13431,10.05211 -21.14255,19.15148 -21.23643,33.83979 l -0.20884,5.80585 c 0.45553,0.029 0.91437,0.0424 1.37614,0.0424 h 36.77296 c 0.25357,0 0.50636,-0.006 0.75807,-0.0116 0.13623,-0.51839 0.84806,-3.35562 0.73536,-5.59448 -0.12432,-2.47359 0.1066,-4.78321 -1.56267,-9.15811 l -35.32447,-0.22481 c 0.64401,-1.50121 1.3773,-2.95496 2.19056,-4.36047 l 31.15881,0.1978 c -3.28704,-6.31569 -8.30319,-12.17344 -14.77945,-17.32968 2.27578,-1.58019 4.55034,-3.17127 6.74482,-4.86224 12.76613,10.8173 18.79563,20.08821 18.69705,35.49189 l -0.17631,4.12223 -1.86913,0.64906 -1.27434,0.44287 c 8.4863,-2.08274 15.16751,-9.06304 16.61345,-18.01956 l 1.38285,-8.56539 c 1.98041,-12.26721 12.55848,-27.19122 21.33721,-35.9394 16.22199,-16.16552 26.26042,-38.53236 26.26042,-63.24318 0,-49.3078 -39.97101,-89.27877 -89.27881,-89.27877 z m -25.37881,41.86721 c 1.54019,0.01 3.07712,0.4945 4.02094,1.45056 0.94022,0.95346 -0.0261,4.01939 -0.0261,4.01939 -0.0299,4.66465 0.83106,9.22093 2.5001,13.59555 l 35.29967,0.22479 v 5.2e-4 c -0.66135,1.52818 -1.40504,2.97107 -2.22934,4.35942 l -31.09628,-0.19838 c 3.29047,6.32249 8.31403,12.18585 14.80014,17.34624 -1.68816,1.26655 -3.41317,2.4909 -5.15215,3.6959 -0.52611,0.38889 -1.04826,0.78496 -1.56528,1.18803 -12.7937,-10.82214 -20.71595,-24.84063 -20.61734,-40.26318 0,0 -0.9266,-3.07758 0.0261,-4.01887 0.95605,-0.94393 2.49937,-1.40963 4.03954,-1.39992 z m 50.68167,0.91261 c 2.26837,0.10732 4.67001,0.86506 4.67001,0.86506 l -0.0261,4.01888 c -0.11474,17.90175 -11.0131,33.77351 -27.73012,44.87685 -15.1343,10.05213 -24.0431,23.55891 -24.13701,38.24727 -0.0357,5.58275 1.20442,11.01051 3.5791,16.15716 l 33.03675,0.21029 c -0.77285,1.50217 -1.63752,2.9554 -2.58175,4.35788 l -28.11509,-0.17892 c 3.24066,5.33882 7.74235,10.31143 13.33096,14.76188 -2.26788,1.58722 -4.5413,3.18077 -6.73755,4.86845 -12.76718,-10.81758 -20.67152,-24.82372 -20.5729,-40.22803 0.11473,-17.90184 11.01207,-33.77769 27.72903,-44.881 15.13437,-10.05213 24.04314,-23.55536 24.13705,-38.24366 0,0 -0.9266,-3.0776 0.0261,-4.01887 0.71714,-0.70789 2.03051,-0.87778 3.39152,-0.81339 z m -44.49134,86.1689 37.92997,0.24137 h 0.003 c 0.068,1.46209 0.0462,2.92388 -0.0683,4.37392 l -37.87261,-0.24138 c -0.0915,-1.45706 -0.0866,-2.91818 0.006,-4.37388 z m 41.40471,86.40558 -1.12759,0.13071 -0.96067,0.13216 c 0.70501,-0.0549 1.40167,-0.1432 2.08826,-0.26316 z" />
      <g
         id="g12"
         transform="matrix(6.8027001,0,0,6.8027001,-169.58373,-80.24763)"
         style="fill:#000000">
        <rect
           style="fill:#000000;fill-opacity:1;stroke:#000000;stroke-width:0;stroke-linecap:square;stroke-dasharray:none;stroke-opacity:1;paint-order:fill markers stroke"
           id="rect28"
           width="1.5122095"
           height="8.1205692"
           x="91.322327"
           y="62.35537"
           rx="1.2905256"
           ry="1.1088803" />
        <rect
           style="fill:#000000;fill-opacity:1;stroke:#000000;stroke-width:0;stroke-linecap:square;stroke-dasharray:none;stroke-opacity:1;paint-order:fill markers stroke"
           id="rect30"
           width="1.5122095"
           height="8.1205692"
           x="127.05032"
           y="-27.422697"
           rx="1.2905256"
           ry="1.1088803"
           transform="rotate(45)" />
        <rect
           style="fill:#000000;fill-opacity:1;stroke:#000000;stroke-width:0;stroke-linecap:square;stroke-dasharray:none;stroke-opacity:1;paint-order:fill markers stroke"
           id="rect32"
           width="1.5122095"
           height="8.1205692"
           x="1.257301"
           y="102.20324"
           rx="1.2905256"
           ry="1.1088803"
           transform="rotate(-45)" />
      </g>
      <path
         d="m 298.68975,493.46763 -83.97521,162.42119 v 80.17386 H 155.62087 V 655.88882 L 71.645663,493.46763 H 138.6876 l 46.99847,101.59964 46.6529,-101.59964 z"
         id="text7"
         style="font-weight:bold;font-size:345.577px;font-family:Poppins;-inkscape-font-specification:'Poppins Bold';stroke:#000000;stroke-width:0;stroke-linecap:square;paint-order:fill markers stroke"
         aria-label="Y" />
      <path
         d="m 704.82556,736.06278 q -26.60943,0 -47.68962,-8.63943 -21.0802,-8.63942 -33.86655,-25.5727 -12.44077,-16.93327 -13.13193,-40.77808 h 62.89502 q 1.38231,13.4775 9.33058,20.73462 7.94827,6.91154 20.73462,6.91154 13.13192,0 20.73462,-5.87481 7.60269,-6.22039 7.60269,-16.93327 0,-8.98501 -6.22039,-14.85981 -5.87481,-5.87481 -14.85981,-9.67616 -8.63942,-3.80135 -24.88154,-8.63942 -23.49924,-7.25712 -38.35905,-14.51424 -14.85981,-7.25712 -25.5727,-21.42577 -10.71288,-14.16866 -10.71288,-36.97674 0,-33.86655 24.53596,-52.87328 24.53597,-19.35231 63.93175,-19.35231 40.08693,0 64.6229,19.35231 24.53596,19.00673 26.26385,53.21886 h -63.93175 q -0.69115,-11.74962 -8.63942,-18.31558 -7.94827,-6.91154 -20.38904,-6.91154 -10.71289,0 -17.27885,5.8748 -6.56597,5.52924 -6.56597,16.24212 0,11.74962 11.05847,18.31558 11.05846,6.56597 34.5577,14.16866 23.49923,7.94827 38.01347,15.20539 14.85981,7.25712 25.57269,21.0802 10.71289,13.82307 10.71289,35.59443 0,20.73462 -10.71289,37.66789 -10.36731,16.93327 -30.41077,26.955 -20.04347,10.02174 -47.34405,10.02174 z"
         id="text6"
         style="font-weight:bold;font-size:345.577px;font-family:Poppins;-inkscape-font-specification:'Poppins Bold';stroke:#000000;stroke-width:0;stroke-linecap:square;paint-order:fill markers stroke"
         aria-label="S" />
      <path
         d="m 919.88641,736.06278 q -26.60943,0 -47.68962,-8.63943 -21.0802,-8.63942 -33.86655,-25.5727 -12.44077,-16.93327 -13.13192,-40.77808 h 62.89501 q 1.38231,13.4775 9.33058,20.73462 7.94827,6.91154 20.73462,6.91154 13.13192,0 20.73462,-5.87481 7.60269,-6.22039 7.60269,-16.93327 0,-8.98501 -6.22038,-14.85981 -5.87481,-5.87481 -14.85982,-9.67616 -8.63942,-3.80135 -24.88154,-8.63942 -23.49923,-7.25712 -38.35905,-14.51424 -14.85981,-7.25712 -25.57269,-21.42577 -10.71289,-14.16866 -10.71289,-36.97674 0,-33.86655 24.53597,-52.87328 24.53596,-19.35231 63.93174,-19.35231 40.08693,0 64.6229,19.35231 24.53592,19.00673 26.26382,53.21886 h -63.93171 q -0.69116,-11.74962 -8.63943,-18.31558 -7.94827,-6.91154 -20.38904,-6.91154 -10.71289,0 -17.27885,5.8748 -6.56596,5.52924 -6.56596,16.24212 0,11.74962 11.05846,18.31558 11.05846,6.56597 34.5577,14.16866 23.49924,7.94827 38.01347,15.20539 14.85981,7.25712 25.5727,21.0802 10.71286,13.82307 10.71286,35.59443 0,20.73462 -10.71286,37.66789 -10.36731,16.93327 -30.41078,26.955 -20.04346,10.02174 -47.34405,10.02174 z"
         id="text5"
         style="font-weight:bold;font-size:345.577px;font-family:Poppins;-inkscape-font-specification:'Poppins Bold';stroke:#000000;stroke-width:0;stroke-linecap:square;paint-order:fill markers stroke"
         aria-label="S" />
    </g>
  </g>
</svg>
