<?xml version="1.0" encoding="UTF-8" standalone="no"?>
<!-- Created with Inkscape (http://www.inkscape.org/) -->

<svg
   width="1080mm"
   height="1080mm"
   viewBox="0 0 1080 1080"
   version="1.1"
   id="svg1"
   sodipodi:docname="YESS_ full form.svg"
   inkscape:version="1.4.2 (f4327f4, 2025-05-13)"
   xmlns:inkscape="http://www.inkscape.org/namespaces/inkscape"
   xmlns:sodipodi="http://sodipodi.sourceforge.net/DTD/sodipodi-0.dtd"
   xmlns="http://www.w3.org/2000/svg"
   xmlns:svg="http://www.w3.org/2000/svg">
  <sodipodi:namedview
     id="namedview1"
     pagecolor="#ffffff"
     bordercolor="#000000"
     borderopacity="0.25"
     inkscape:showpageshadow="2"
     inkscape:pageopacity="0.0"
     inkscape:pagecheckerboard="0"
     inkscape:deskcolor="#d1d1d1"
     inkscape:document-units="mm"
     inkscape:zoom="0.18937307"
     inkscape:cx="2038.3046"
     inkscape:cy="1618.4983"
     inkscape:window-width="1920"
     inkscape:window-height="991"
     inkscape:window-x="-9"
     inkscape:window-y="-9"
     inkscape:window-maximized="1"
     inkscape:current-layer="layer1" />
  <defs
     id="defs1" />
  <g
     id="layer1"
     style="display:inline">
    <g
       id="g1"
       transform="translate(2.5185494e-5,-95.632306)">
      <path
         id="rect16"
         style="display:inline;fill:#0f52ba;fill-opacity:1;stroke:#000000;stroke-width:0;stroke-linecap:square;stroke-dasharray:none;stroke-opacity:1;paint-order:fill markers stroke"
         d="m 114.91753,153.2971 c -0.8496,0 -1.61509,0.24315 -2.16317,0.63614 -0.70491,0.42429 -1.17202,1.17773 -1.17202,2.04019 v 10.49289 c 0,0.18439 0.0216,0.36361 0.062,0.53589 0.0798,1.1231 1.3957,2.01073 3.01842,2.01073 h 17.38808 c 1.67445,0 3.02256,-0.94501 3.02256,-2.11873 0,-1.17373 -1.34811,-2.11874 -3.02256,-2.11874 h -14.8872 a 0.58316629,0.58316629 45 0 1 -0.58317,-0.58317 v -0.33538 a 0.58316629,0.58316629 135 0 1 0.58317,-0.58317 h 7.40911 c 1.67445,0 3.02255,-0.94501 3.02255,-2.11873 0,-1.17372 -1.3481,-2.11873 -3.02255,-2.11873 h -7.34764 a 0.64463571,0.64463571 45 0 1 -0.64464,-0.64464 v -0.21296 a 0.64463571,0.64463571 135 0 1 0.64464,-0.64464 h 14.85932 c 1.67445,0 3.02256,-0.94449 3.02256,-2.11821 0,-1.17373 -1.34811,-2.11874 -3.02256,-2.11874 z"
         transform="matrix(3.5708444,0,0,5.8577855,18.901822,-253.97886)" />
      <path
         id="path9"
         style="fill:#fff655;fill-opacity:1;stroke:none;stroke-width:0.997;stroke-linecap:square;stroke-dasharray:none;stroke-opacity:1;paint-order:fill markers stroke"
         d="m 122.9496,77.804036 c -16.97579,-10e-7 -30.737659,13.761348 -30.737657,30.737144 0,8.50751 3.456427,16.20799 9.041527,21.77349 3.02241,3.0118 6.66427,8.1499 7.34609,12.37328 l 0.47608,2.94892 c 0.59769,3.70224 3.79364,6.42362 7.54381,6.42362 h 12.6603 c 3.75017,0 6.94612,-2.72138 7.54381,-6.42362 l 0.47608,-2.94892 c 0.68182,-4.22338 4.32369,-9.36148 7.34605,-12.37332 5.58494,-5.5655 9.04105,-13.26596 9.04105,-21.77345 0,-16.975794 -13.76135,-30.737143 -30.73714,-30.737144 z"
         transform="matrix(2.9045953,0,0,2.9045953,99.68012,191.55678)" />
      <path
         id="path6"
         style="baseline-shift:baseline;display:inline;overflow:visible;fill:#0f52ba;fill-opacity:1;stroke:none;stroke-width:2.89588;stroke-linecap:square;stroke-dasharray:none;stroke-opacity:1;paint-order:fill markers stroke;enable-background:accumulate;stop-color:#000000"
         d="m 486.77192,461.19075 c 0,0 -6.14903,-1.9394 -8.0614,-0.0517 -0.95347,0.94127 -0.0272,4.01937 -0.0272,4.01937 -0.0939,14.68829 -9.00235,28.19145 -24.13672,38.24359 -16.71696,11.10331 -27.61454,26.9789 -27.72924,44.88073 -0.0986,15.40432 7.80562,29.41042 20.5728,40.228 2.19625,-1.68768 4.46971,-3.28094 6.73759,-4.86815 -5.58862,-4.45046 -10.09017,-9.42323 -13.33084,-14.76206 l 28.11488,0.17891 c 0.94422,-1.40248 1.80897,-2.8557 2.58183,-4.35788 l -33.03663,-0.21027 c -2.37469,-5.14665 -3.61475,-10.57458 -3.57897,-16.15733 0.0939,-14.68837 9.00242,-28.19488 24.13673,-38.24702 16.71702,-11.10334 27.61535,-26.97553 27.73005,-44.8773 z m -0.55986,87.47034 c 0.0986,-15.41544 -7.81767,-29.42986 -20.60096,-40.25069 -0.69143,0.53483 -1.39115,1.0564 -2.09877,1.56523 -1.55469,1.06962 -3.10448,2.16889 -4.62971,3.30801 5.82896,4.63882 10.47663,9.84577 13.74581,15.44353 l -28.9276,-0.18388 c -0.60612,0.92459 -1.17755,1.87573 -1.71034,2.85542 -0.2687,0.49504 -0.52517,0.99622 -0.77061,1.50307 l 33.65174,0.21409 c 2.17917,4.9491 3.31325,10.1508 3.27903,15.49409 -0.0939,14.68834 -9.00249,28.19143 -24.13679,38.24371 -16.71696,11.1033 -23.31911,22.95929 -23.43381,40.86107 l -0.19796,4.12339 1.6668,0.47891 1.6668,0.47891 3.31999,0.40816 0.20952,-5.82141 c 0.0939,-14.68832 6.10202,-23.78754 21.23633,-33.83966 16.71702,-11.1033 27.61536,-26.97971 27.73005,-44.88145 z m -2.40864,78.71699 c 0.0986,-15.4037 -5.93073,-24.67428 -18.69688,-35.49157 -2.19448,1.69095 -4.4693,3.2821 -6.74508,4.8623 6.47624,5.15622 11.49269,11.01368 14.77975,17.32938 l -31.15881,-0.19796 c -0.81327,1.4055 -1.54687,2.85917 -2.19088,4.36039 l 35.32452,0.22517 c 1.66918,4.37489 1.43863,6.68406 1.56305,9.15766 0.12449,2.4736 -0.75789,5.67794 -0.75789,5.67794 l 1.96639,-0.27006 2.00197,-0.23266 1.86877,-0.64897 1.86884,-0.64898 z m -8.26303,-80.64181 -37.93002,-0.24163 c -0.0939,1.4557 -0.0986,2.91714 -0.007,4.3742 l 37.87253,0.24109 c 0.11429,-1.45003 0.13606,-2.91183 0.068,-4.37391 z m -2.32659,-68.03245 -35.29949,-0.22477 c -1.66904,-4.37462 -2.53006,-8.93106 -2.50019,-13.59571 0,0 0.96741,-3.06591 0.0272,-4.01937 -1.88768,-1.91211 -6.14849,-1.93885 -8.06059,-0.051 -0.95346,0.94129 -0.0272,4.01937 -0.0272,4.01937 -0.0986,15.42255 7.82379,29.44101 20.61749,40.26316 0.517,-0.40306 1.03938,-0.79914 1.5655,-1.18804 1.73898,-1.205 3.46407,-2.42946 5.15223,-3.69601 -6.4861,-5.16039 -11.50996,-11.02369 -14.80043,-17.34616 l 31.0963,0.1981 c 0.82428,-1.38835 1.56782,-2.83106 2.22918,-4.35924 z" />
      <g
         id="g12"
         transform="matrix(6.8027001,0,0,6.8027001,-169.58373,-80.24763)">
        <rect
           style="fill:#0f52ba;fill-opacity:1;stroke:#000000;stroke-width:0;stroke-linecap:square;stroke-dasharray:none;stroke-opacity:1;paint-order:fill markers stroke"
           id="rect28"
           width="1.5122095"
           height="8.1205692"
           x="91.322327"
           y="62.35537"
           rx="1.2905256"
           ry="1.1088803" />
        <rect
           style="fill:#0f52ba;fill-opacity:1;stroke:#000000;stroke-width:0;stroke-linecap:square;stroke-dasharray:none;stroke-opacity:1;paint-order:fill markers stroke"
           id="rect30"
           width="1.5122095"
           height="8.1205692"
           x="127.05032"
           y="-27.422697"
           rx="1.2905256"
           ry="1.1088803"
           transform="rotate(45)" />
        <rect
           style="fill:#0f52ba;fill-opacity:1;stroke:#000000;stroke-width:0;stroke-linecap:square;stroke-dasharray:none;stroke-opacity:1;paint-order:fill markers stroke"
           id="rect32"
           width="1.5122095"
           height="8.1205692"
           x="1.257301"
           y="102.20324"
           rx="1.2905256"
           ry="1.1088803"
           transform="rotate(-45)" />
      </g>
      <text
         style="font-weight:bold;font-size:345.577px;font-family:Poppins;-inkscape-font-specification:'Poppins Bold';fill:#0f52ba;stroke:#000000;stroke-width:0;stroke-linecap:square;stroke-dasharray:none;paint-order:fill markers stroke"
         x="69.226624"
         y="736.06268"
         id="text7">Y</text>
      <text
         style="font-weight:bold;font-size:345.577px;font-family:Poppins;-inkscape-font-specification:'Poppins Bold';fill:#0f52ba;stroke:#000000;stroke-width:0;stroke-linecap:square;stroke-dasharray:none;paint-order:fill markers stroke"
         x="595.62323"
         y="733.64374"
         id="text6">S</text>
      <text
         style="font-weight:bold;font-size:345.577px;font-family:Poppins;-inkscape-font-specification:'Poppins Bold';fill:#0f52ba;stroke:#000000;stroke-width:0;stroke-linecap:square;stroke-dasharray:none;paint-order:fill markers stroke"
         x="810.68408"
         y="733.64374"
         id="text5">S</text>
    </g>
    <text
       xml:space="preserve"
       style="font-weight:bold;font-size:39.0866px;font-family:Montserrat;-inkscape-font-specification:'Montserrat Bold';text-align:start;writing-mode:lr-tb;direction:ltr;text-anchor:start;fill:#0f52ba;fill-opacity:1;stroke-width:0;stroke-linecap:square;paint-order:fill markers stroke"
       x="112.02124"
       y="710.46191"
       id="text1"><tspan
         id="tspan1"
         style="font-style:normal;font-variant:normal;font-weight:bold;font-stretch:normal;font-size:39.0866px;font-family:Poppins;-inkscape-font-specification:'Poppins Bold';fill:#0f52ba;fill-opacity:1;stroke-width:0"
         x="112.02124"
         y="710.46191">YOUNG ENTREPRENEURS SCHOOL &amp; SOCIETY</tspan></text>
  </g>
</svg>
